Coordinates
version=1
nRows=17
nColumns=40
inDegrees=yes

Units are S.I. units (second, meters, Newtons, ...)
Angles are in degrees.

endheader
time	pelvis_tilt	pelvis_list	pelvis_rotation	pelvis_tx	pelvis_ty	pelvis_tz	hip_flexion_r	hip_adduction_r	hip_rotation_r	knee_angle_r	knee_angle_r_beta	ankle_angle_r	subtalar_angle_r	mtp_angle_r	hip_flexion_l	hip_adduction_l	hip_rotation_l	knee_angle_l	knee_angle_l_beta	ankle_angle_l	subtalar_angle_l	mtp_angle_l	lumbar_extension	lumbar_bending	lumbar_rotation	arm_flex_r	arm_add_r	arm_rot_r	elbow_flex_r	pro_sup_r	wrist_flex_r	wrist_dev_r	arm_flex_l	arm_add_l	arm_rot_l	elbow_flex_l	pro_sup_l	wrist_flex_l	wrist_dev_l
     56.85000000	     -0.33801118	     -5.67534575	     -0.36749368	      0.90556688	      0.90931632	      0.55511673	     13.04793795	      6.86912213	    -11.38968174	     31.66086047	     31.66086047	     20.05654862	    -11.33143435	     -0.17903897	     28.78540324	    -15.17368719	      0.39227742	     63.26777968	     63.26777968	     18.82561021	    -19.63719146	     23.99191845	    -12.24980555	      6.40619841	      0.33807756	     22.31953056	    -15.03225236	     -8.29358450	     41.31190624	     45.94334264	      0.00000000	      0.00000000	      4.66446904	     -7.66022615	      1.58712678	     26.69204982	     45.80954654	      0.00000000	      0.00000000
     56.87000000	     -0.25689062	     -5.58308480	      0.25467564	      0.90428192	      0.90843761	      0.55569874	     12.76883861	      6.83790371	    -11.58036987	     31.89646274	     31.89646274	     20.45481560	    -11.87451135	     -0.12078492	     29.61832833	    -14.88616074	      0.42892087	     61.04040531	     61.04040531	     18.94396441	    -19.62586806	     23.88273099	    -12.23812860	      6.08648325	      0.35129890	     24.40778435	    -14.70064420	     -8.11503719	     43.24367243	     45.87050085	      0.00000000	      0.00000000	      2.44242936	     -7.40662141	      2.02465147	     25.33481377	     45.69904277	      0.00000000	      0.00000000
     56.89000000	     -0.27425082	     -5.45390081	      0.90323275	      0.90289797	      0.90810605	      0.55580897	     12.43606602	      6.74262870	    -11.85552673	     31.81611038	     31.81611038	     20.74796971	    -12.24459467	      0.00138566	     30.39518080	    -14.38755711	      0.59380228	     58.43508541	     58.43508541	     18.81707266	    -19.60232930	     23.53450359	    -12.17622173	      5.78348640	      0.38237061	     26.40110925	    -14.48942844	     -7.72201937	     45.62260263	     45.77059361	      0.00000000	      0.00000000	      0.26107433	     -7.25815426	      2.52529426	     24.23707636	     45.57100164	      0.00000000	      0.00000000
     56.91000000	     -0.40153543	     -5.28801093	      1.58050092	      0.90137746	      0.90833731	      0.55541602	     12.06597471	      6.58150285	    -12.17915906	     31.42896523	     31.42896523	     20.92857825	    -12.39546369	      0.11776682	     31.12709083	    -13.68639870	      0.89166269	     55.49843170	     55.49843170	     18.30931080	    -19.55130829	     22.87007638	    -12.08147938	      5.52726083	      0.58066076	     28.19526602	    -14.63828687	     -7.07115524	     48.48351877	     45.64219315	      0.00000000	      0.00000000	     -1.88145613	     -7.18693153	      3.10698320	     23.69591224	     45.41849513	      0.00000000	      0.00000000
     56.93000000	     -0.70397701	     -5.03753223	      2.24642258	      0.89982343	      0.90902385	      0.55463895	     11.73514359	      6.32044380	    -12.53386335	     30.75592726	     30.75592726	     20.94870482	    -12.54831519	      0.27026856	     31.86761549	    -12.72151147	      1.37235079	     52.34153432	     52.34153432	     17.87363020	    -19.47348333	     22.95762601	    -11.68611059	      5.08448003	      1.32220693	     30.19618729	    -15.18547044	     -7.04976874	     49.83634791	     45.60344158	      0.00000000	      0.00000000	     -3.59229605	     -7.08983390	      3.22407469	     23.22604171	     45.36278529	      0.00000000	      0.00000000
     56.95000000	     -0.75733965	     -4.77042766	      2.95476861	      0.89841791	      0.91071537	      0.55344931	     10.89036784	      6.01716695	    -13.07913938	     29.68147516	     29.68147516	     20.84708698	    -12.24821271	      0.33241215	     32.01497480	    -11.67170875	      1.93701553	     48.76769836	     48.76769836	     16.94925683	    -19.36511128	     21.64349287	    -11.76108682	      4.73557099	      1.00910111	     32.15523240	    -14.90546912	     -6.31557840	     53.41432263	     45.45200849	      0.00000000	      0.00000000	     -5.89127206	     -7.27528699	      3.62859048	     23.25563974	     45.22906536	      0.00000000	      0.00000000
     56.97000000	     -1.11604565	     -4.57424411	      3.69252018	      0.89685862	      0.91228148	      0.55190891	     10.32265286	      5.73645002	    -13.79332907	     28.47423028	     28.47423028	     20.56568497	    -11.80750009	      0.02440734	     32.34209704	    -10.65219794	      2.60279241	     44.98320155	     44.98320155	     14.97901920	    -19.19013705	     18.44712600	    -11.54964290	      4.45824621	      1.41874270	     33.27165065	    -15.99589673	     -4.84809096	     58.23744149	     45.23181234	      0.00000000	      0.00000000	     -8.19848334	     -7.65788887	      4.50217617	     25.05835294	     44.99183234	      0.00000000	      0.00000000
     56.99000000	     -1.53193744	     -4.22895991	      4.35432331	      0.89540368	      0.91417394	      0.55009277	      9.70571272	      5.37628303	    -14.20077396	     27.08785333	     27.08785333	     20.29914772	    -11.66115725	      0.25431077	     32.55562988	     -9.40558808	      3.43389700	     41.28761127	     41.28761127	     14.06094884	    -18.82527198	     18.38681942	    -11.10523475	      3.98551865	      1.97056997	     35.27278950	    -16.55337277	     -4.84256371	     59.69018121	     45.19351833	      0.00000000	      0.00000000	     -9.58293736	     -7.82040147	      4.73221843	     24.97332451	     44.92492052	      0.00000000	      0.00000000
     57.01000000	     -1.82806751	     -4.03989877	      5.03664399	      0.89415275	      0.91608414	      0.54810530	      8.84867009	      5.10912365	    -15.06963944	     25.52381664	     25.52381664	     19.79750709	    -10.90917825	     -0.55505887	     32.34572769	     -8.52903307	      3.96956664	     37.23794623	     37.23794623	     11.33531439	    -18.34281991	     13.31205377	    -11.03177994	      3.75013417	      2.41208449	     36.63087163	    -17.67867640	     -3.81150688	     64.25118576	     45.02560849	      0.00000000	      0.00000000	    -11.80870912	     -8.48552936	      6.40487407	     27.54073214	     44.59446561	      0.00000000	      0.00000000
     57.03000000	     -2.18057744	     -3.87810966	      5.68844930	      0.89300701	      0.91794764	      0.54596928	      7.99022703	      4.97716069	    -15.61725265	     23.82543759	     23.82543759	     19.44598504	    -10.43660384	     -0.34343385	     32.23929688	     -7.68401795	      4.64565632	     33.70576527	     33.70576527	     10.54261079	    -17.12817704	     13.11855901	    -10.73806298	      3.50031726	      2.61170297	     38.84723612	    -17.92776434	     -3.93098776	     65.74706221	     44.99554570	      0.00000000	      0.00000000	    -13.05677474	     -8.66140483	      6.83266989	     27.49827824	     44.51387888	      0.00000000	      0.00000000
     57.05000000	     -2.59514966	     -3.74708138	      6.27315140	      0.89202157	      0.91933905	      0.54381996	      7.26097071	      4.84835416	    -16.23397418	     22.28676684	     22.28676684	     19.18503062	     -9.86564755	     -0.23120436	     32.11073577	     -7.07535449	      4.87616798	     30.39950574	     30.39950574	      9.84477954	    -15.33921471	     12.80173087	    -10.37573707	      3.24195347	      2.84385115	     40.91923086	    -18.20259644	     -3.94817120	     67.34915058	     44.95646347	      0.00000000	      0.00000000	    -14.20839154	     -8.83305294	      7.09979667	     27.74152202	     44.45724593	      0.00000000	      0.00000000
     57.07000000	     -2.87597077	     -3.72070651	      6.83321620	      0.89130063	      0.92041728	      0.54155274	      6.37833592	      4.83877159	    -16.94520192	     20.75042329	     20.75042329	     18.90812012	     -9.09778273	     -0.26311476	     31.82144414	     -6.70034085	      4.87541386	     27.46777869	     27.46777869	      9.12709318	    -13.35622345	     12.01872830	    -10.21011857	      3.11982131	      2.98335959	     42.98535583	    -18.46575007	     -3.83463094	     69.31997778	     44.90269519	      0.00000000	      0.00000000	    -15.39014129	     -9.02449028	      7.41749621	     28.44460818	     44.39452598	      0.00000000	      0.00000000
     57.09000000	     -3.11339551	     -3.75411885	      7.33988553	      0.89083037	      0.92094792	      0.53933950	      5.52036067	      4.90972050	    -17.55790413	     19.37795748	     19.37795748	     18.74748998	     -8.32866747	     -0.49868068	     31.49769426	     -6.50157175	      4.59521870	     24.96779266	     24.96779266	      8.28649313	    -11.36821743	     10.78491424	    -10.07600387	      3.04035898	      3.11662562	     44.87130803	    -18.74913021	     -3.59837626	     71.39453167	     44.84464848	      0.00000000	      0.00000000	    -16.55604599	     -9.27418604	      7.85721582	     29.61174845	     44.32146769	      0.00000000	      0.00000000
     57.11000000	     -3.44784361	     -3.79927114	      7.76779169	      0.89046920	      0.92080395	      0.53704016	      4.99854298	      4.95006985	    -17.96062129	     18.45943807	     18.45943807	     18.71383957	     -8.00745723	     -0.59049807	     31.26549669	     -6.32461580	      4.20274009	     22.90557116	     22.90557116	      7.60646983	     -9.83504585	     10.31394728	     -9.76976408	      2.92088507	      3.31309191	     46.68611437	    -18.96312977	     -3.54986796	     72.70425282	     44.81461933	      0.00000000	      0.00000000	    -17.30871280	     -9.41908913	      8.14593889	     30.18264749	     44.27777419	      0.00000000	      0.00000000
     57.13000000	     -3.63230590	     -3.96327370	      8.18433416	      0.89050971	      0.92012812	      0.53466257	      4.32777625	      5.12075887	    -18.45367118	     17.58367491	     17.58367491	     18.62622132	     -7.55042613	     -1.37000305	     30.98935953	     -6.37623793	      3.51379219	     21.38900815	     21.38900815	      5.99143397	     -8.49566650	      6.86814387	     -9.66379793	      2.94983244	      3.45775393	     48.27762518	    -19.32126059	     -3.10753505	     74.75517073	     44.77626704	      0.00000000	      0.00000000	    -18.56246612	     -9.96283582	      9.56257753	     32.63763106	     44.12648668	      0.00000000	      0.00000000
     57.15000000	     -3.84953334	     -4.07008176	      8.54710455	      0.89059086	      0.91921927	      0.53218732	      3.89391634	      5.20630735	    -18.65031341	     17.12722728	     17.12722728	     18.80356663	     -7.55038677	     -1.37900121	     30.80754149	     -6.28529265	      3.16180134	     20.45634356	     20.45634356	      5.43465928	     -7.88777042	      6.84739693	     -9.47860790	      2.88708414	      3.57769107	     49.98251491	    -19.31077331	     -3.23534003	     75.47254398	     44.76971725	      0.00000000	      0.00000000	    -18.76426209	     -9.93988461	      9.80766497	     32.61554801	     44.10440883	      0.00000000	      0.00000000
     57.17000000	     -4.05535717	     -4.17762297	      8.89616686	      0.89096983	      0.91798780	      0.52956098	      3.49691297	      5.26149424	    -18.83792278	     16.80915536	     16.80915536	     19.06600725	     -7.56396121	     -1.41510966	     30.78212528	     -6.21578418	      2.77747801	     20.16591169	     20.16591169	      4.89574424	     -7.52661606	      6.66936365	     -9.26325077	      2.78343310	      3.62933927	     51.53273468	    -19.32767639	     -3.35293055	     76.15369466	     44.76147461	      0.00000000	      0.00000000	    -18.88598744	     -9.93353035	      9.96468620	     32.62580956	     44.09055550	      0.00000000	      0.00000000
